<svg xmlns="http://www.w3.org/2000/svg" xmlns:xlink="http://www.w3.org/1999/xlink" version="1.1" x="0px" y="0px" viewBox="0 0 100 125" enable-background="new 0 0 100 100" xml:space="preserve"><path d="M79.672,37.768c-4.65-2.757-6.225-7.375-6.686-9.262c1.906-0.44,3.977-0.999,6.123-1.706c0.77,1.644,2.834,5.187,6.885,7.07  C84.193,35.276,82.1,36.597,79.672,37.768z"/><path d="M72.006,40.579c-0.852-0.219-4.279-1.358-6.461-5.823c-0.004-0.006-0.006-0.012-0.01-0.018  c-0.164-0.339-0.32-0.702-0.469-1.08c-0.029-0.073-0.057-0.148-0.086-0.224c-0.121-0.321-0.234-0.66-0.342-1.011  c-0.043-0.139-0.082-0.28-0.123-0.424c-0.086-0.308-0.166-0.629-0.24-0.959c-0.045-0.199-0.088-0.401-0.127-0.608  c-0.027-0.14-0.049-0.29-0.074-0.434c1.35-0.132,3.902-0.441,7.09-1.094c0.475,2.016,2.006,6.604,6.484,9.768  c-1.721,0.716-3.582,1.363-5.619,1.914L72.006,40.579z"/><path d="M14.006,33.87c4.051-1.883,6.115-5.426,6.885-7.07c2.146,0.708,4.219,1.267,6.127,1.707C26.563,30.391,25,35,20.328,37.768  C17.901,36.597,15.806,35.276,14.006,33.87z"/><path d="M28.835,28.903c3.188,0.652,5.741,0.961,7.091,1.094c-0.025,0.144-0.047,0.294-0.074,0.434  c-0.039,0.208-0.083,0.411-0.127,0.61c-0.074,0.329-0.154,0.648-0.24,0.956c-0.041,0.146-0.082,0.289-0.125,0.43  c-0.106,0.349-0.219,0.686-0.34,1.005c-0.027,0.077-0.057,0.153-0.087,0.229c-0.147,0.376-0.303,0.737-0.467,1.074  c-0.003,0.008-0.009,0.017-0.012,0.026c-2.183,4.462-5.609,5.6-6.46,5.819l-0.024,0.006c-2.036-0.551-3.898-1.198-5.618-1.914  C26.831,35.508,28.362,30.919,28.835,28.903z"/><path d="M11.311,22.627c-0.791,0.992-2.314,2.637-4.295,3.5c-2.303-3.711-3.334-7.244-3.794-9.609  C5.61,18.968,8.392,20.976,11.311,22.627z"/><path d="M8.059,27.685c2.379-1.134,4.105-3.102,4.914-4.163c2.033,1.042,4.108,1.923,6.148,2.665  c-0.787,1.588-2.844,4.903-6.717,6.338C10.655,30.958,9.226,29.319,8.059,27.685z"/><path d="M62.191,30.073c-0.004-0.024-0.01-0.045-0.014-0.069c-0.393-0.051-0.787-0.077-1.18-0.077c-1.918,0-3.258,0.591-3.885,0.943  c-3.076,1.729-6.828,2.263-6.986,2.286L50,33.172l-0.127-0.017c-0.159-0.022-3.911-0.556-6.988-2.286  c-0.625-0.352-1.965-0.942-3.884-0.942c-0.393,0-0.786,0.025-1.179,0.077c-0.004,0.024-0.01,0.045-0.014,0.069  c-1.368,8.433-6.221,11.197-8.506,12.04c0.83,3.696,2.793,8.048,4.862,12.638c2.163,4.799,4.401,9.761,5.427,14.256  c1.756,7.677,3.445,11.403,5.64,13.131c-0.21-6.474-1.69-8.899-1.706-8.925c-0.271-0.43-0.149-1.003,0.278-1.28  c0.429-0.274,0.995-0.159,1.276,0.265c0.08,0.123,1.939,3.055,2.025,10.937c0.613,0.194,1.266,0.302,1.966,0.348v-8.499  c0-0.514,0.415-0.929,0.929-0.929c0.513,0,0.928,0.415,0.928,0.929v8.499c0.701-0.046,1.353-0.153,1.966-0.349  c0.086-7.882,1.945-10.813,2.025-10.936c0.283-0.428,0.859-0.546,1.287-0.263c0.426,0.281,0.545,0.852,0.268,1.279  c-0.035,0.057-1.496,2.493-1.705,8.924c2.193-1.729,3.883-5.455,5.637-13.131c1.027-4.494,3.264-9.455,5.428-14.254  c2.07-4.591,4.031-8.944,4.863-12.64C68.412,41.27,63.559,38.506,62.191,30.073z M41.26,57.341  c-2.002,0.415-4.156-2.331-4.814-6.133c-0.658-3.803,0.433-7.223,2.434-7.638c2.003-0.415,4.157,2.332,4.814,6.134  C44.352,53.506,43.261,56.926,41.26,57.341z M63.555,51.208c-0.658,3.802-2.813,6.548-4.814,6.133s-3.092-3.835-2.434-7.637  c0.656-3.802,2.811-6.549,4.813-6.134S64.211,47.405,63.555,51.208z"/><path d="M87.596,32.524c-3.873-1.435-5.93-4.75-6.717-6.338c2.039-0.742,4.115-1.622,6.148-2.665  c0.809,1.062,2.535,3.029,4.914,4.163C90.773,29.319,89.346,30.958,87.596,32.524z"/><path d="M92.984,26.127c-1.98-0.864-3.504-2.508-4.297-3.5c2.92-1.651,5.703-3.659,8.09-6.108  C96.318,18.884,95.287,22.417,92.984,26.127z"/></svg>