<svg xmlns="http://www.w3.org/2000/svg" viewBox="0 0 588.75 735.9375" x="0px" y="0px"><title>TNP - Icons for Instagram</title><g><path d="M413.09,555.48a170.28,170.28,0,0,1-43.22-5.74c-63.42-16.59-125.07-67.67-183.25-151.82a8.61,8.61,0,0,1-.91-1.72,8.12,8.12,0,0,1-1.28-1.46c-58.18-84.15-84.18-159.88-77.29-225.07C114.06,104.09,152,71.3,168,60.24,185.84,47.91,201,43.59,214.35,47c21.37,5.5,33,28.94,46.55,56.08q1.69,3.4,3.45,6.89c11.91,23.69,13.93,41,6.56,56.08-7.14,14.6-22.28,25.38-41.32,38-5.39,3.55-8.68,8.76-10.06,15.92-2.65,13.67,1.78,34,12.8,58.94,11.51,26,26.73,49.4,34.77,61s24.56,34.13,44.82,54.09c19.39,19.11,36.89,30.45,50.61,32.8,7.19,1.23,13.23,0,18.45-3.78,18.5-13.38,33.93-23.73,50.11-25.25,16.72-1.57,32.19,6.44,50.15,25.95q2.64,2.87,5.23,5.66c20.61,22.23,38.41,41.42,36,63.36-1.5,13.7-10.9,26.36-28.73,38.69C481.67,539.8,453.58,555.48,413.09,555.48ZM199.33,386.79a9,9,0,0,1,1.28,1.46c29.85,43.18,60.95,77.67,92.43,102.5,26.84,21.17,54.14,35.48,81.13,42.54,57,14.91,95.85-6.1,109.91-15.82,13.54-9.35,20.57-18,21.5-26.55,1.56-14.22-13.8-30.78-31.58-49.95q-2.61-2.82-5.27-5.71C440,404,426.28,411.26,391,436.82c-9,6.51-19.53,8.78-31.3,6.77-43.76-7.51-92.61-73.84-106.53-94s-58.72-89.27-50.28-132.87C205.1,205,211,196,220.22,189.85c36.39-24,48-34.27,28.94-72.21-1.18-2.35-2.33-4.67-3.47-7C234,87.28,224,67.06,210.12,63.49c-8.3-2.13-18.91,1.38-32.45,10.74C163.61,84,130.23,112.88,124,171.46c-2.93,27.74.82,58.34,11.14,90.93,12.11,38.22,33.38,79.5,63.23,122.68A8.94,8.94,0,0,1,199.33,386.79Z"/></g></svg>