<svg xmlns="http://www.w3.org/2000/svg" viewBox="0 0 588.75 735.9375" x="0px" y="0px"><title>TNP - Icons for Instagram</title><g><path d="M419.18,546.52H345.09a33.59,33.59,0,0,1-32.9-26.22l-3.8-16.6a280.59,280.59,0,0,1-32.08,2.08h-.62l-1.23,0a280.32,280.32,0,0,1-33.94-2.1l-3.8,16.59a33.58,33.58,0,0,1-32.89,26.22H129.74a33.76,33.76,0,0,1-33.29-39.3l10-60C57.06,406.3,28.83,349,28.83,289.11A196.52,196.52,0,0,1,53,195.4C43.8,187,37.27,177.53,33.53,167.28c-7.09-19.4-4.16-39.88,8.69-60.88A21.95,21.95,0,0,1,72.4,99.14c5.09,3.12,12.93,10.9,8.19,28-3.43,12.38-1.31,19.16.84,20.52,1.4.9,5.46.46,11.27-4A8.39,8.39,0,0,1,94,142.15a246.26,246.26,0,0,1,80.4-51A271.54,271.54,0,0,1,274.46,72.4c.44,0,.88,0,1.32,0l.52,0a277.45,277.45,0,0,1,61.36,7.25c42.28-38.24,81.94-40.51,108-35.5a38.9,38.9,0,0,1,27.75,55.32l-20.15,41.05c27.05,25.35,46.81,56,57.5,89.36l16.36,3.28a44.4,44.4,0,0,1,34.76,52.21L546.3,363.35a44.47,44.47,0,0,1-52.2,34.76l-6.47-1.3a223.26,223.26,0,0,1-45.17,50.38l10,60a33.76,33.76,0,0,1-33.29,39.3ZM315,485.73a8.5,8.5,0,0,1,8.28,6.6l5.54,24.18a16.66,16.66,0,0,0,16.32,13h74.09A16.74,16.74,0,0,0,435.7,510l-10.41-62.45a16,16,0,0,0-.36-1.59,8.49,8.49,0,0,1,2.94-8.85A206.28,206.28,0,0,0,476.3,382.9a8.51,8.51,0,0,1,8.93-3.91l12.21,2.45A27.46,27.46,0,0,0,529.63,360l15.63-77.93a27.38,27.38,0,0,0-21.43-32.19l-21.33-4.28a8.5,8.5,0,0,1-6.49-6c-9.95-34.11-30.28-65.48-58.78-90.74a8.5,8.5,0,0,1-2-10.11L458.2,92a21.63,21.63,0,0,0-.06-19.3A22,22,0,0,0,442.51,60.9c-41.5-8-75.42,14.27-96.57,34.32A8.52,8.52,0,0,1,338,97.29a259.5,259.5,0,0,0-61.81-7.83c-.4,0-.8,0-1.21,0l-.53,0A254.72,254.72,0,0,0,180.6,107a229.76,229.76,0,0,0-73.06,45.75,8.43,8.43,0,0,1-1.94,2.38c-17,14.55-28.94,9.68-33.29,6.91-10.13-6.43-13.15-21.17-8.1-39.41.92-3.33,1.55-7.59-.69-9a4.94,4.94,0,0,0-6.8,1.64c-10,16.35-12.44,31.88-7.22,46.17,3.36,9.21,10,17.74,19.61,25.36a8.5,8.5,0,0,1,2.06,11C54.36,226.28,45.83,257,45.83,289.11A177,177,0,0,0,66,371.28c13,25.1,31.52,47.26,55,65.85A8.51,8.51,0,0,1,124,446c-.19.7-.3,1.17-.37,1.59L113.22,510a16.76,16.76,0,0,0,16.52,19.5h74.09a16.66,16.66,0,0,0,16.32-13l5.54-24.18a8.49,8.49,0,0,1,9.55-6.51,262.37,262.37,0,0,0,39.22,3h.76l.95,0a263.38,263.38,0,0,0,37.5-3A9.29,9.29,0,0,1,315,485.73Zm88.36-215.27a41.09,41.09,0,1,1,41.09-41.09A41.13,41.13,0,0,1,403.31,270.46Zm0-65.17a24.09,24.09,0,1,0,24.09,24.08A24.1,24.1,0,0,0,403.31,205.29Z"/></g></svg>