<svg xmlns="http://www.w3.org/2000/svg" viewBox="0 0 588.75 735.9375" x="0px" y="0px"><title>TNP - Icons for Instagram</title><g><path d="M55.7,560.06a8.51,8.51,0,0,1-8.5-8.5V190.49a8.49,8.49,0,0,1,6.7-8.31l157.82-34.1a8.49,8.49,0,0,1,10.3,8.31V517.45a8.49,8.49,0,0,1-6.71,8.31L57.49,559.86A8.32,8.32,0,0,1,55.7,560.06Zm8.5-362.71V541L205,510.6V166.92Z"/><path d="M371.34,560.06a8.51,8.51,0,0,1-8.5-8.5V190.49a8.49,8.49,0,0,1,6.7-8.31l157.82-34.1a8.49,8.49,0,0,1,10.3,8.31V517.45a8.49,8.49,0,0,1-6.71,8.31l-157.82,34.1A8.32,8.32,0,0,1,371.34,560.06Zm8.5-362.71V541L520.66,510.6V166.92Z"/><path d="M371.34,560.06a8.49,8.49,0,0,1-1.8-.2l-157.82-34.1a8.49,8.49,0,0,1-6.7-8.31V156.39a8.49,8.49,0,0,1,10.29-8.31l157.82,34.1a8.49,8.49,0,0,1,6.71,8.31V551.56a8.51,8.51,0,0,1-8.5,8.5ZM222,510.6,362.84,541V197.35L222,166.92Z"/><path d="M370.14,39.73A32.86,32.86,0,0,1,403,72.59c0,18.15-32.86,66.07-32.86,66.07s-32.87-47.92-32.87-66.07a32.87,32.87,0,0,1,32.87-32.86m0-17a49.92,49.92,0,0,0-49.87,49.86c0,6.83,1.94,19.26,18.71,48.34,8.45,14.65,16.79,26.83,17.14,27.34a17,17,0,0,0,28,0c.35-.51,8.68-12.69,17.13-27.34C418.06,91.85,420,79.42,420,72.59a49.92,49.92,0,0,0-49.86-49.86Z"/><circle cx="369.52" cy="78.59" r="10.75"/><path d="M369.33,328.82a8.42,8.42,0,0,1-3.9-1L209.21,247a8.5,8.5,0,0,1,7.82-15.1l156.21,80.92a8.5,8.5,0,0,1-3.91,16.05Z"/><path d="M438.22,545.92a8.52,8.52,0,0,1-7.61-12.28l91.33-184.26a8.5,8.5,0,1,1,15.23,7.55L445.85,541.19A8.53,8.53,0,0,1,438.22,545.92Z"/><path d="M56.1,423.35A8.5,8.5,0,0,1,53,406.94L207.6,346.05a8.5,8.5,0,0,1,6.23,15.82L59.21,422.75A8.3,8.3,0,0,1,56.1,423.35Z"/></g></svg>